<?xml version="1.0" encoding="utf-8"?>
<svg viewBox="0 0 500 500" xmlns="http://www.w3.org/2000/svg">
  <rect x="205.763" y="473.896" width="175.349" height="18.917" style="fill: rgb(216, 216, 216);"/>
  <rect x="221.77" y="413.506" width="141.153" height="64.028" style="fill: rgb(216, 216, 216);"/>
  <rect x="243.233" y="364.272" width="98.225" height="50.204" style="fill: rgb(216, 216, 216);"/>
  <rect x="261.545" y="151.815" width="64.028" height="215.367" style="fill: rgb(212, 212, 212);"/>
  <rect x="264.697" y="144.297" width="54.569" height="8.731" style="fill: rgb(216, 216, 216);"/>
  <rect x="273.428" y="137.749" width="38.562" height="6.548" style="fill: rgb(216, 216, 216);"/>
  <rect x="283.615" y="129.018" width="21.1" height="8.731" style="fill: rgb(216, 216, 216);"/>
  <rect x="287.253" y="81.725" width="13.097" height="50.931" style="fill: rgb(216, 216, 216);"/>
  <rect x="291.796" y="10.187" width="4.042" height="71.546" style="fill: rgb(119, 119, 119);"/>
  <rect x="307.561" y="261.7" width="10.914" height="12.935" style="fill: rgb(2, 129, 187);"/>
  <rect x="266.937" y="240.883" width="10.914" height="12.935" style="fill: rgb(2, 129, 187);"/>
  <rect x="307.358" y="202.483" width="10.914" height="12.935" style="fill: rgb(2, 129, 187);"/>
  <rect x="306.55" y="240.882" width="10.914" height="12.935" style="fill: rgb(2, 129, 187);"/>
  <rect x="267.341" y="223.905" width="10.914" height="12.935" style="fill: rgb(2, 129, 187);"/>
  <rect x="305.741" y="223.097" width="10.914" height="12.935" style="fill: rgb(2, 129, 187);"/>
  <rect x="306.55" y="181.867" width="10.914" height="12.935" style="fill: rgb(2, 129, 187);"/>
  <rect x="268.149" y="181.867" width="10.914" height="12.935" style="fill: rgb(2, 129, 187);"/>
  <rect x="267.341" y="201.673" width="10.914" height="12.935" style="fill: rgb(2, 129, 187);"/>
  <rect x="306.146" y="164.082" width="10.914" height="12.935" style="fill: rgb(2, 129, 187);"/>
  <rect x="267.745" y="164.081" width="10.914" height="12.935" style="fill: rgb(2, 129, 187);"/>
  <rect x="267.745" y="283.528" width="10.914" height="12.935" style="fill: rgb(2, 129, 187);"/>
  <rect x="266.937" y="260.891" width="10.914" height="12.935" style="fill: rgb(2, 129, 187);"/>
  <rect x="307.763" y="321.12" width="10.914" height="12.935" style="fill: rgb(2, 129, 187);"/>
  <rect x="307.763" y="302.121" width="10.914" height="12.935" style="fill: rgb(2, 129, 187);"/>
  <rect x="267.341" y="303.738" width="10.914" height="12.935" style="fill: rgb(2, 129, 187);"/>
  <rect x="306.55" y="283.528" width="10.914" height="12.935" style="fill: rgb(2, 129, 187);"/>
  <rect x="268.149" y="322.332" width="10.914" height="12.935" style="fill: rgb(2, 129, 187);"/>
  <rect x="284.52" y="160.646" width="15.764" height="177.855" style="fill: rgb(2, 129, 187);"/>
  <rect x="317.464" y="372.68" width="10.914" height="12.935" style="fill: rgb(2, 129, 187);"/>
  <rect x="254.81" y="372.68" width="10.914" height="12.935" style="fill: rgb(2, 129, 187);"/>
  <rect x="318.676" y="393.699" width="10.914" height="12.935" style="fill: rgb(2, 129, 187);"/>
  <rect x="255.618" y="393.295" width="10.914" height="12.935" style="fill: rgb(2, 129, 187);"/>
  <rect x="285.935" y="373.892" width="10.914" height="12.935" style="fill: rgb(2, 129, 187);"/>
  <rect x="286.743" y="392.891" width="10.914" height="12.935" style="fill: rgb(2, 129, 187);"/>
  <rect x="228.94" y="420.377" width="10.914" height="12.935" style="fill: rgb(2, 129, 187);"/>
  <rect x="263.299" y="419.973" width="10.914" height="12.935" style="fill: rgb(2, 129, 187);"/>
  <rect x="309.784" y="420.377" width="10.914" height="12.935" style="fill: rgb(2, 129, 187);"/>
  <rect x="342.929" y="420.782" width="10.914" height="12.935" style="fill: rgb(2, 129, 187);"/>
  <rect x="310.592" y="445.843" width="10.914" height="12.935" style="fill: rgb(2, 129, 187);"/>
  <rect x="226.919" y="445.035" width="10.914" height="12.935" style="fill: rgb(2, 129, 187);"/>
  <rect x="263.299" y="444.63" width="10.914" height="12.935" style="fill: rgb(2, 129, 187);"/>
  <rect x="343.738" y="446.651" width="10.914" height="12.935" style="fill: rgb(2, 129, 187);"/>
  <rect x="286.339" y="432.1" width="10.914" height="12.935" style="fill: rgb(2, 129, 187);"/>
  <rect x="130.918" y="461.742" width="1.617" height="1.617" style="fill: rgb(216, 216, 216);"/>
  <rect x="284.116" y="473.061" width="21.423" height="18.998" style="fill: rgb(166, 88, 0);"/>
  <line style="stroke: rgb(0, 0, 0);" x1="294.62555120421666" y1="473.64423095085647" x2="294.62555120421666" y2="492.64242106971494"/>
  <circle style="" cx="292.2" cy="483.345" r="1.457"/>
</svg>